<?xml version="1.0" encoding="utf-8" ?>
<svg baseProfile="tiny" height="210mm" version="1.2" width="297mm" xmlns="http://www.w3.org/2000/svg" xmlns:ev="http://www.w3.org/2001/xml-events" xmlns:xlink="http://www.w3.org/1999/xlink"><defs /><polyline fill="none" points="28.8962,660.309 81.0035,660.309 84.1807,660.309 86.4048,660.6267 87.6757,661.2621 88.3112,662.2153 87.358,663.804 84.4985,664.4395 77.8262,665.7103 73.0603,667.9344 70.2007,671.7471 69.2476,676.5131 69.5653,679.6903 70.5185,683.5031 71.1539,685.0917 72.1071,687.6335 73.3781,691.4462 75.2844,696.2121 77.8262,701.9312 80.6857,708.9212 83.863,716.8644 87.6757,725.7607 94.9834,743.5534 101.6557,759.4398 107.3748,772.7842 112.4584,783.587 113.4116,781.0452 114.6825,777.5502 116.2712,773.102 118.1775,768.0184 120.4016,761.9816 122.6256,755.3093 125.1675,747.6838 128.027,739.1052 130.8866,730.8444 133.4284,723.2189 135.6525,716.2289 137.5588,710.5098 139.4652,705.1085 140.7361,700.978 141.6893,697.483 142.3248,694.6235 138.512,684.4562 135.017,676.8308 132.1575,671.4294 129.9334,668.8876 125.1675,666.3458 119.1307,665.0749 115.3179,664.1217 114.047,662.5331 114.6825,661.5799 116.2712,660.6267 119.1307,660.309 122.9434,660.309 174.0974,660.309 177.5924,660.309 179.8165,660.6267 181.0874,662.5331 179.4988,664.1217 174.7328,665.3926 169.0137,666.9813 165.2011,669.5231 162.6592,673.3358 161.7061,678.1017 162.3416,683.1853 164.2479,690.8108 167.1074,700.6603 171.2378,712.4162 176.6393,726.7139 182.9937,742.918 190.6192,761.3461 199.5156,782.3161 214.1309,742.6002 227.1578,706.3794 229.6996,699.3894 231.6059,693.6703 232.8769,689.2221 233.5123,686.6803 234.1477,679.0549 233.1946,673.0181 230.3351,668.2521 225.8868,665.7103 219.2147,664.4395 216.6729,663.804 216.0374,662.2153 216.9905,660.6267 218.8969,660.309 223.0273,660.309 251.9404,660.309 257.6595,660.309 262.1077,660.309 265.285,660.309 266.8737,660.309 268.1446,660.9445 268.78,662.5331 267.8268,664.1217 265.9204,664.4395 259.8836,665.7103 254.1645,668.5699 249.3986,673.0181 245.5859,678.7372 243.3618,683.1853 240.5023,689.2221 237.325,697.483 233.5123,707.6503 229.0641,719.4062 223.9805,733.3862 218.2614,749.2725 212.2246,767.0652 208.7296,776.2793 205.8701,784.8579 203.0105,792.4833 200.7864,799.1556 198.5624,804.8747 196.6561,809.9583 195.0674,814.0887 193.7965,816.9483 190.3015,816.9483 181.0874,791.8479 171.8733,769.2893 166.7897,756.8979 160.7529,742.2825 153.7629,725.1252 146.1375,705.4262 107.6925,816.9483 104.1975,816.9483 97.843,803.286 90.853,786.4465 86.4048,775.9615 80.6857,762.617 73.6958,746.413 65.4348,727.6671 60.9866,717.8175 57.1739,709.2389 53.679,701.6135 50.5017,694.9412 47.6422,689.5399 45.418,684.7739 43.5117,681.2789 41.9231,678.7371 36.5217,672.0649 31.7558,667.9344 27.3076,665.7103 23.4949,664.4395 20.9531,663.804 19.9999,662.2153 20.3176,661.2621 22.2241,660.6267 25.0836,660.309 28.8962,660.309" stroke="black" stroke-width="1" /><polyline fill="none" points="311.9908,651.4127 311.3553,710.8276 311.6731,720.9948 311.9908,729.5734 319.2985,721.6302 327.5594,716.2289 336.4557,712.7339 345.9875,711.7808 353.2953,712.4162 359.9675,714.0048 365.369,716.8644 370.1348,720.6771 373.9476,726.0784 376.4893,733.0684 378.078,741.9648 378.7134,752.4498 377.7603,784.2225 377.7603,790.8947 378.078,796.2961 378.078,800.1088 378.078,802.3329 379.3489,805.5101 381.573,808.052 384.7503,809.9583 387.6098,810.5938 390.1516,810.9115 390.787,811.8647 389.5162,813.4533 385.7034,814.0887 350.4358,814.0887 348.8471,813.4533 348.2117,812.1824 348.8471,810.5938 351.0713,809.9583 354.8839,809.3229 357.7435,807.7343 359.9675,805.8279 360.9208,803.2861 361.874,799.1556 362.1916,791.8479 362.5095,781.6807 362.5095,768.3361 362.1916,753.7207 360.9208,741.9648 359.0144,733.0684 356.1549,727.0316 352.6599,722.9012 348.8471,720.0416 344.399,718.453 339.3153,717.8176 334.2317,718.453 329.7835,719.7239 325.3354,722.2657 321.2049,725.7607 317.7099,729.8912 315.1681,735.2925 313.2618,741.3293 311.9908,748.637 311.3553,756.5802 311.0377,765.4766 310.7198,775.0084 310.7198,785.4933 310.7198,792.1656 311.0377,797.567 311.3553,802.0151 312.3085,804.8747 315.1681,808.6874 320.8871,810.9115 323.1113,811.5469 324.0645,812.8179 323.429,814.4065 321.2049,814.7242 297.0576,814.4065 289.7499,814.4065 283.7131,814.7242 280.8536,814.0887 279.9004,812.8179 280.8536,811.5469 282.7599,810.9115 287.5259,809.6406 290.7031,807.4165 291.6563,805.5101 292.6095,801.3797 293.245,795.6606 294.1981,788.3529 294.8336,779.4565 295.1513,769.2893 295.4691,757.8511 295.4691,745.4598 295.4691,734.3394 295.4691,724.1721 295.4691,714.958 295.4691,707.0148 295.4691,699.7072 295.1513,693.6703 295.1513,688.5867 295.1513,684.4562 294.5158,677.784 293.8804,672.0649 292.6095,667.299 291.0209,663.4863 286.5727,658.4026 281.4891,655.8608 278.9473,654.9077 278.3118,653.6367 278.9473,652.3658 279.9004,652.3658 281.1713,652.3658 283.7131,652.3658 286.5727,652.3658 298.9641,652.0481 311.9908,651.4127" stroke="black" stroke-width="1" /><polyline fill="none" points="409.8507,712.7339 412.3925,712.7339 420.0179,713.6871 428.2789,713.6871 436.8575,713.6871 443.5297,713.6871 448.6133,713.3694 451.4728,713.0516 453.6969,712.7339 454.9679,712.7339 457.192,713.0516 458.1451,714.958 456.5565,716.5466 452.7438,718.1353 448.6133,719.4062 445.7538,721.6303 443.8475,724.1721 443.212,727.0316 443.8475,729.2557 445.1183,733.3862 447.0247,739.423 450.202,747.3661 454.0148,756.8979 458.4629,768.3361 464.1819,781.6807 470.5365,796.6138 476.2556,780.4097 481.0215,767.0652 484.8342,756.5803 487.0583,748.6371 489.9178,737.1989 490.871,728.3026 490.2356,724.1721 487.6938,720.6771 483.881,718.453 478.4797,717.4998 475.9379,716.5466 474.9847,714.958 475.6201,713.6871 477.8442,713.0517 479.7506,713.0517 484.1988,713.3694 487.0583,713.3694 491.8242,713.6871 499.1319,713.3694 504.851,713.3694 509.6169,713.3694 512.7942,713.0517 516.2892,712.7339 518.5132,713.3694 519.1487,714.958 518.5132,716.5466 515.9714,717.4998 511.5232,719.0885 507.3928,721.948 503.8978,726.0785 501.0383,731.4798 499.4496,734.6571 497.5432,739.1053 495.6369,744.5066 493.0951,750.8611 490.5533,758.1689 487.6938,766.4297 484.1988,775.6439 481.0215,785.8111 474.0316,805.1924 467.9946,821.7142 462.5934,835.3765 458.1451,846.1792 453.6969,854.7578 449.2488,861.7478 444.8007,867.4669 440.0347,871.5973 435.2688,874.7746 430.8206,876.9987 426.0547,878.2696 421.6065,878.905 413.3457,877.3164 406.9911,873.5037 402.8607,868.1023 401.5897,862.3832 402.543,858.2528 405.0847,854.4401 408.8975,851.8983 412.7102,850.9451 416.8407,851.5806 420.0179,853.4869 422.2419,856.6642 423.1952,860.7946 423.8306,863.6542 424.7839,865.5605 426.6902,866.8314 428.9142,867.4669 433.3625,866.196 438.1284,862.701 442.8942,857.2996 448.2957,849.3564 452.7438,840.7778 455.9211,833.4701 458.1451,826.7979 458.7806,821.3965 458.1451,816.6306 456.5565,810.2761 454.0148,802.3329 450.5197,793.1188 441.9411,772.1489 432.4093,749.5903 427.6434,739.1052 423.8306,731.1621 420.9711,725.443 418.7469,722.2657 414.9343,718.7708 410.8038,717.4998 407.9443,716.5466 406.9911,714.958 407.6266,713.0516 409.8507,712.7339" stroke="black" stroke-width="1" /><polyline fill="none" points="640.5203,717.4999 633.5304,718.1353 627.8113,720.3594 622.7277,723.8544 618.5972,728.938 615.4199,735.6103 613.1959,743.8712 611.9249,753.403 611.6072,764.2057 611.9249,775.3261 613.5135,784.5402 616.3732,792.1656 620.1858,798.2025 624.634,802.6506 629.0822,805.8279 633.848,807.7343 638.9318,808.3697 644.0153,807.7343 648.7812,805.8279 653.5471,802.3329 658.313,797.567 662.4434,791.2125 665.6208,782.3161 667.2094,771.1957 667.8448,757.8511 667.5271,748.3193 666.2562,740.0585 664.0321,733.0685 661.1726,727.3494 657.3599,722.9012 652.594,719.7239 646.8749,717.8176 640.5203,717.4999" stroke="black" stroke-width="1" /><polyline fill="none" points="684.6844,651.095 684.6844,664.7572 684.6844,680.9613 684.6844,699.3894 685.0021,719.7239 684.0489,795.6606 684.6844,801.062 686.9084,805.5102 690.4034,808.3698 695.4871,809.9584 698.3466,810.9116 699.2998,812.5002 698.0289,814.4066 696.4403,814.4066 693.263,814.7242 688.4971,814.7242 682.1426,814.7242 667.5271,814.4066 667.2094,808.052 667.2094,803.9216 667.2094,799.1556 667.5271,792.4834 660.5371,802.9684 652.9117,810.2761 644.0153,814.7242 634.4835,816.3129 627.4935,815.3597 620.1858,812.8179 613.1959,808.6874 605.8881,802.9684 599.5336,795.6606 594.7676,787.082 592.2258,777.5502 591.2727,767.0652 591.9081,756.2625 594.45,746.413 598.8981,737.1989 604.9349,728.6203 611.9249,721.6303 620.1858,716.5467 628.7644,713.3694 638.2963,712.4162 647.8281,713.3694 655.7712,716.5467 662.1258,721.9481 667.5271,729.5735 667.8448,715.9113 668.1625,703.2021 668.1625,693.9881 668.1625,686.3626 667.8448,679.3726 667.8448,673.6536 667.5271,668.8876 667.2094,665.075 666.5739,662.5331 666.2562,660.9445 663.0789,657.7672 657.3599,655.8608 653.8648,655.2254 652.9117,653.6368 654.1826,652.0481 658.6307,651.7304 684.6844,651.095" stroke="black" stroke-width="1" /><polyline fill="none" points="746.0056,711.7808 746.0056,738.4698 746.3234,763.5703 746.3234,782.3161 746.0056,796.6138 746.3234,800.7443 746.6411,803.6038 747.5943,806.1456 748.8651,807.7343 752.3602,809.3229 757.4438,810.2761 760.3033,810.5938 762.2097,810.9116 763.4806,811.8647 763.7983,812.8179 763.1628,814.4066 761.2565,814.7242 759.3502,814.7242 748.5475,813.7711 738.6979,813.1356 731.3903,813.4534 725.6711,813.4534 720.9052,813.7711 717.4102,814.0888 715.1862,814.4066 712.962,813.7711 712.3265,812.1824 712.6443,811.2292 713.9153,810.5938 715.8216,809.9584 718.9989,809.3229 724.4002,808.052 727.2598,806.4634 728.213,804.8748 728.8484,802.3329 729.1661,798.8379 729.1661,794.7075 730.1193,745.1421 729.8016,736.2457 729.1661,729.5735 728.213,724.4899 726.942,721.9481 722.4939,719.0885 715.5038,717.8176 713.2798,717.4999 712.6443,715.9113 713.5975,714.3226 714.8684,714.0049 717.7279,713.6871 721.8584,713.3694 727.8953,712.7339 733.932,712.4163 739.0156,712.0985 743.1461,711.7808 746.0056,711.7808" stroke="black" stroke-width="1" /><polyline fill="none" points="732.9789,653.6368 737.1093,654.2722 740.922,656.814 743.7815,660.309 744.417,664.1218 743.7815,668.2522 741.5575,672.0649 738.0624,674.6068 733.6143,675.5599 729.1661,674.6068 725.3534,672.3826 722.8116,668.8876 721.8584,664.4395 722.8116,659.9913 725.0356,656.4963 728.5307,654.2722 732.9789,653.6368" stroke="black" stroke-width="1" /><polyline fill="none" points="823.531,717.4999 816.541,718.1353 810.8219,720.3594 805.7383,723.8544 801.6078,728.938 798.4305,735.6103 796.2065,743.8712 794.9355,753.403 794.6178,764.2057 794.9355,775.3262 796.5242,784.5402 799.3838,792.1656 803.1964,798.2025 807.6447,802.6506 812.0929,805.8279 816.8588,807.7343 821.9424,808.3698 827.0259,807.7343 831.7919,805.8279 836.5578,802.3329 841.3237,797.567 845.4541,791.2125 848.6315,782.3162 850.22,771.1957 850.8555,757.8512 850.5378,748.3194 849.2669,740.0585 847.0428,733.0685 844.1833,727.3494 840.3705,722.9012 835.6046,719.7239 829.8855,717.8176 823.531,717.4999" stroke="black" stroke-width="1" /><polyline fill="none" points="867.6951,651.095 867.6951,664.7572 867.6951,680.9613 867.6951,699.3895 868.0128,719.7239 867.0596,795.6606 867.6951,801.062 869.9192,805.5102 873.4142,808.3698 878.4978,809.9584 881.3573,810.9116 882.3104,812.5002 881.0395,814.4066 879.4509,814.4066 876.2737,814.7242 871.5078,814.7242 865.1532,814.7242 850.5378,814.4066 850.22,808.052 850.22,803.9216 850.22,799.1556 850.5378,792.4834 843.5479,802.9684 835.9223,810.2761 827.0259,814.7242 817.4941,816.3129 810.5042,815.3597 803.1964,812.8179 796.2065,808.6874 788.8987,802.9684 782.5443,795.6606 777.7784,787.082 775.2365,777.5502 774.2833,767.0652 774.9188,756.2625 777.4606,746.413 781.9088,737.1989 787.9456,728.6203 794.9355,721.6303 803.1964,716.5467 811.775,713.3694 821.3069,712.4163 830.8387,713.3694 838.7819,716.5467 845.1364,721.9481 850.5378,729.5735 850.8555,715.9113 851.1732,703.2021 851.1732,693.9881 851.1732,686.3627 850.8555,679.3727 850.8555,673.6536 850.5378,668.8877 850.22,665.075 849.5845,662.5331 849.2669,660.9445 846.0895,657.7672 840.3705,655.8608 836.8755,655.2254 835.9223,653.6368 837.1932,652.0482 841.6414,651.7304 867.6951,651.095" stroke="black" stroke-width="1" /><polyline fill="none" points="990.0199,711.7808 990.0199,738.4698 990.3375,763.5703 990.3375,782.3162 990.0199,796.6138 990.3375,800.7443 990.6554,803.6038 991.6085,806.1457 992.8795,807.7343 996.3745,809.3229 1001.4581,810.2761 1004.3176,810.5938 1006.2239,810.9116 1007.4948,811.8647 1007.8126,812.8179 1007.1771,814.4066 1005.2708,814.7243 1003.3643,814.7243 992.5616,813.7711 982.712,813.1356 975.4044,813.4534 969.6853,813.4534 964.9195,813.7711 961.4245,814.0888 959.2004,814.4066 956.9762,813.7711 956.3409,812.1825 956.6585,811.2293 957.9294,810.5938 959.8357,809.9584 963.0131,809.3229 968.4144,808.052 971.2739,806.4634 972.2272,804.8748 972.8627,802.3329 973.1803,798.838 973.1803,794.7075 974.1334,745.1421 973.8158,736.2458 973.1803,729.5735 972.2272,724.4899 970.9562,721.9481 966.5081,719.0885 959.5181,717.8176 957.294,717.4999 956.6585,715.9113 957.6116,714.3226 958.8826,714.0049 961.7421,713.6871 965.8726,713.3694 971.9094,712.734 977.9463,712.4163 983.0298,712.0985 987.1603,711.7808 990.0199,711.7808" stroke="black" stroke-width="1" /><polyline fill="none" points="976.993,653.6368 981.1235,654.2723 984.9363,656.8141 987.7958,660.3091 988.4312,664.1218 987.7958,668.2522 985.5716,672.0649 982.0767,674.6068 977.6284,675.5599 973.1803,674.6068 969.3676,672.3827 966.8257,668.8877 965.8726,664.4395 966.8257,659.9913 969.0498,656.4963 972.5448,654.2723 976.993,653.6368" stroke="black" stroke-width="1" /><polyline fill="none" points="1053.2474,678.1017 1054.8361,678.7372 1055.4716,681.2791 1055.1538,683.5031 1054.8361,694.3058 1055.1538,712.734 1081.2074,712.4163 1084.0669,712.4163 1086.291,712.734 1087.5619,713.3694 1088.1974,714.0049 1087.5619,718.4531 1086.291,720.9949 1081.8429,720.9949 1075.4883,721.3126 1066.2742,721.9481 1055.1538,722.5835 1053.8829,748.9548 1053.2474,774.373 1053.5653,783.2693 1054.5184,790.577 1056.1069,796.2961 1058.0134,800.1089 1063.7325,804.557 1071.3578,806.1457 1078.0302,804.8748 1085.3379,801.3798 1087.5619,800.1089 1088.8329,799.7911 1090.1039,800.1089 1090.4215,801.3798 1089.786,802.9684 1088.1974,805.1925 1085.6555,807.4166 1081.8429,810.2761 1077.3948,813.1357 1072.3112,815.042 1066.9097,816.3129 1061.1906,816.6307 1055.4716,815.9952 1050.3879,814.4066 1046.2574,811.8647 1042.7625,808.052 1040.2207,803.2861 1038.3143,797.567 1037.0433,790.577 1036.7257,782.9516 1036.7257,778.1857 1036.7257,772.4666 1037.0433,766.1121 1037.3612,759.1221 1037.6788,751.179 1037.9966,742.2826 1038.3143,733.0685 1038.9497,722.5835 1037.6788,722.5835 1035.4547,722.2658 1032.2776,722.2658 1027.5116,721.9481 1020.5215,721.3126 1018.2975,720.9949 1017.662,719.724 1018.6153,718.1353 1020.8394,717.1821 1023.6989,715.9113 1027.194,713.6871 1031.6421,710.5099 1037.0433,706.6971 1042.1271,701.9313 1046.2574,696.2122 1048.7993,689.5399 1050.3879,682.2322 1051.3411,679.0549 1053.2474,678.1017" stroke="black" stroke-width="1" /><polyline fill="none" points="1196.5424,651.4127 1195.9069,710.8276 1196.2245,720.9949 1196.5424,729.5735 1203.85,721.6304 1212.1108,716.229 1221.0073,712.734 1230.5391,711.7808 1237.8467,712.4163 1244.519,714.0049 1249.9203,716.8644 1254.6863,720.6772 1258.4989,726.0786 1261.0408,733.0685 1262.6294,741.9648 1263.2649,752.4498 1262.3118,784.2225 1262.3118,790.8948 1262.6294,796.2961 1262.6294,800.1089 1262.6294,802.3329 1263.9004,805.5103 1266.1245,808.0521 1269.3016,809.9584 1272.1611,810.5939 1274.7031,810.9116 1275.3385,811.8647 1274.0676,813.4534 1270.2549,814.0889 1234.9872,814.0889 1233.3986,813.4534 1232.7631,812.1825 1233.3986,810.5939 1235.6226,809.9584 1239.4354,809.3229 1242.295,807.7343 1244.519,805.8279 1245.4722,803.2861 1246.4253,799.1557 1246.7432,791.848 1247.0608,781.6807 1247.0608,768.3362 1246.7432,753.7208 1245.4722,741.9648 1243.5658,733.0685 1240.7062,727.0317 1237.2112,722.9012 1233.3986,720.0417 1228.9504,718.4531 1223.8668,717.8176 1218.7832,718.4531 1214.3348,719.724 1209.8867,722.2658 1205.7562,725.7608 1202.2615,729.8912 1199.7195,735.2926 1197.8131,741.3294 1196.5424,748.6371 1195.9069,756.5803 1195.589,765.4766 1195.2714,775.0084 1195.2714,785.4934 1195.2714,792.1657 1195.589,797.5671 1195.9069,802.0153 1196.86,804.8748 1199.7195,808.6875 1205.4386,810.9116 1207.6627,811.5471 1208.6158,812.8179 1207.9805,814.4066 1205.7562,814.7243 1181.6091,814.4066 1174.3013,814.4066 1168.2645,814.7243 1165.405,814.0889 1164.4519,812.8179 1165.405,811.5471 1167.3114,810.9116 1172.0773,809.6407 1175.2546,807.4166 1176.2078,805.5103 1177.1609,801.3798 1177.7963,795.6607 1178.7496,788.353 1179.3851,779.4566 1179.7028,769.2894 1180.0204,757.8512 1180.0204,745.4598 1180.0204,734.3394 1180.0204,724.1722 1180.0204,714.9581 1180.0204,707.0149 1180.0204,699.7072 1179.7028,693.6704 1179.7028,688.5868 1179.7028,684.4563 1179.0673,677.7841 1178.4318,672.0649 1177.1609,667.2991 1175.5723,663.4863 1171.1241,658.4027 1166.0405,655.8609 1163.4987,654.9077 1162.8632,653.6368 1163.4987,652.3659 1164.4519,652.3659 1165.7227,652.3659 1168.2645,652.3659 1171.1241,652.3659 1183.5154,652.0482 1196.5424,651.4127" stroke="black" stroke-width="1" /><polyline fill="none" points="1353.1816,752.4499 1350.9575,754.674 1347.4625,757.5335 1342.6965,760.393 1336.9775,763.5703 1331.2584,766.7476 1326.1748,769.9248 1322.3622,773.1021 1319.1848,775.9617 1315.0543,782.6339 1313.4657,790.2593 1314.7366,797.2493 1317.9138,802.9684 1322.9974,807.0989 1329.3521,808.3698 1336.0244,807.0989 1342.061,803.9216 1347.4625,799.1557 1351.2751,793.1189 1352.5461,789.6239 1353.4993,785.1757 1353.8171,779.7744 1354.1348,773.7375 1353.8171,763.5703 1353.1816,752.4499" stroke="black" stroke-width="1" /><polyline fill="none" points="1336.342,712.0986 1348.7333,713.0518 1358.2653,715.9113 1364.9375,720.0417 1368.4325,724.8076 1369.3856,727.9849 1370.021,732.1154 1370.6565,737.5167 1370.6565,744.189 1370.021,775.6439 1370.021,783.9048 1370.3389,791.2125 1371.292,796.9316 1372.2451,801.3798 1373.5161,804.8748 1375.4225,807.4166 1377.6465,808.6875 1380.1882,809.3229 1383.6833,809.0052 1385.5897,808.6875 1387.8137,809.0052 1388.4492,810.5939 1386.8606,812.5002 1382.4125,814.0889 1375.1046,814.7243 1364.9375,815.0421 1359.2184,814.4066 1355.7234,811.8647 1354.7703,809.9584 1354.1348,807.0989 1353.4993,803.2861 1353.1816,798.838 1346.827,806.1457 1339.2015,811.5471 1330.6229,814.7243 1321.0912,815.6775 1315.3721,815.3597 1310.2886,814.0889 1305.8402,812.1825 1302.0276,809.3229 1299.168,805.8279 1296.944,802.0153 1295.673,797.2493 1295.3553,792.4835 1296.3085,784.858 1299.4858,777.868 1303.6161,771.8312 1308.6997,768.0185 1311.8771,766.4299 1316.0076,764.5235 1321.0912,762.6171 1327.4458,760.393 1336.0244,757.5335 1342.6965,754.674 1347.4625,752.1321 1350.322,749.908 1353.1816,745.1422 1354.1348,739.1053 1352.8638,729.5735 1349.0511,722.5836 1343.0142,718.1354 1335.071,716.5468 1328.3989,717.4999 1323.6329,720.0417 1321.7267,722.2658 1320.1379,725.1254 1318.8672,728.938 1317.9138,733.3862 1316.3252,738.4699 1314.4188,741.6472 1311.5593,743.8712 1308.3821,744.5067 1305.5226,743.8712 1302.663,741.9648 1300.1211,738.7876 1299.4858,734.0217 1300.1211,729.8912 1302.0276,725.7608 1304.8871,721.9481 1309.3352,718.4531 1314.7366,715.5936 1321.0912,713.6872 1328.3989,712.4163 1336.342,712.0986" stroke="black" stroke-width="1" /><polyline fill="none" points="1452.2727,721.6304 1446.2357,722.2658 1440.8345,724.1722 1436.3864,727.6672 1432.2559,732.1154 1429.0785,738.1522 1426.8545,745.7776 1425.5835,754.674 1424.9482,765.1589 1424.9482,775.0085 1425.2659,783.2693 1425.5835,788.9885 1426.219,793.1189 1428.443,798.838 1433.8445,804.5571 1441.4697,808.3698 1451.0017,809.6407 1457.9917,809.0052 1464.3461,806.4634 1469.7476,802.6507 1474.5135,797.2493 1478.3262,790.5771 1481.1857,783.2693 1482.7743,775.3262 1483.4098,766.7476 1482.7743,756.8981 1480.868,748.3195 1478.3262,740.694 1474.1957,734.0217 1469.4299,728.6204 1464.3461,724.8076 1458.6271,722.2658 1452.2727,721.6304" stroke="black" stroke-width="1" /><polyline fill="none" points="1425.9014,712.0986 1426.5367,721.6304 1426.5367,725.7608 1425.9014,731.7976 1431.6204,726.714 1436.3864,722.5836 1440.5166,719.4063 1444.0117,717.4999 1450.6841,714.9581 1457.9917,714.0049 1466.8879,714.9581 1474.8312,717.8176 1482.4567,722.5836 1489.1289,729.2558 1494.8479,737.199 1498.9784,745.4599 1501.5201,754.674 1502.1558,764.5235 1501.2025,775.0085 1498.6606,784.5403 1493.8948,793.1189 1487.5403,800.7443 1479.5972,806.7811 1471.3362,811.2293 1462.4399,813.7711 1452.908,814.7243 1446.2357,814.0889 1439.5635,812.818 1432.5735,810.2761 1425.9014,806.7811 1424.3125,822.032 1423.9949,838.8716 1423.9949,848.0856 1424.6304,855.0756 1425.2659,859.8416 1426.8545,863.0188 1429.3964,865.8783 1432.5735,867.7847 1437.0216,869.0556 1439.5635,870.3265 1440.8345,871.9152 1440.5166,873.186 1439.5635,873.5038 1432.5735,873.186 1426.5367,872.8683 1421.1354,872.8683 1416.3696,872.8683 1406.8376,872.8683 1399.53,872.8683 1394.1285,872.8683 1390.9514,873.186 1389.0449,872.5506 1388.4094,870.962 1389.0449,869.691 1390.6337,869.0556 1395.7172,868.1024 1399.53,867.1492 1402.7072,865.5606 1404.6135,863.972 1405.249,862.3833 1405.8845,860.477 1406.52,857.2997 1406.8376,853.487 1407.1553,849.0388 1407.4731,843.3197 1407.7909,837.283 1408.1086,829.9752 1408.4263,816.6307 1408.744,805.8279 1408.744,797.8848 1409.0618,792.8011 1408.4263,760.3931 1408.744,741.0117 1408.4263,734.0217 1408.1086,728.6204 1407.4731,724.4899 1406.52,721.6304 1405.249,720.0417 1403.025,718.4531 1400.1654,717.4999 1396.3528,716.8644 1394.1285,716.229 1393.4932,714.9581 1394.4463,713.3694 1395.7172,713.0518 1397.6235,712.734 1401.1185,712.734 1405.249,712.734 1425.9014,712.0986" stroke="black" stroke-width="1" /><polyline fill="none" points="1574.2795,721.6304 1568.2429,722.2659 1562.8414,724.1722 1558.3933,727.6672 1554.2628,732.1154 1551.0857,738.1522 1548.8616,745.7776 1547.5906,754.674 1546.9551,765.1589 1546.9551,775.0085 1547.2729,783.2694 1547.5906,788.9885 1548.2261,793.1189 1550.4502,798.838 1555.8516,804.5571 1563.4769,808.3698 1573.0088,809.6407 1579.9988,809.0052 1586.3533,806.4634 1591.7546,802.6507 1596.5206,797.2494 1600.3333,790.5771 1603.1929,783.2694 1604.7815,775.3262 1605.417,766.7476 1604.7815,756.8981 1602.875,748.3195 1600.3333,740.694 1596.2029,734.0217 1591.4369,728.6204 1586.3533,724.8077 1580.6342,722.2659 1574.2795,721.6304" stroke="black" stroke-width="1" /><polyline fill="none" points="1547.9084,712.0986 1548.5437,721.6304 1548.5437,725.7608 1547.9084,731.7976 1553.6276,726.714 1558.3933,722.5836 1562.5238,719.4063 1566.0188,717.4999 1572.691,714.9581 1579.9988,714.0049 1588.8951,714.9581 1596.8384,717.8177 1604.4636,722.5836 1611.136,729.2559 1616.8551,737.199 1620.9856,745.4599 1623.5273,754.674 1624.1628,764.5235 1623.2097,775.0085 1620.6677,784.5403 1615.9019,793.1189 1609.5474,800.7444 1601.604,806.7812 1593.3433,811.2294 1584.447,813.7712 1574.915,814.7243 1568.2429,814.0889 1561.5707,812.818 1554.5807,810.2762 1547.9084,806.7812 1546.3197,822.032 1546.002,838.8716 1546.002,848.0856 1546.6375,855.0756 1547.2729,859.8416 1548.8616,863.0188 1551.4033,865.8784 1554.5807,867.7847 1559.0288,869.0556 1561.5707,870.3265 1562.8414,871.9152 1562.5238,873.186 1561.5707,873.5038 1554.5807,873.186 1548.5437,872.8683 1543.1426,872.8683 1538.3765,872.8683 1528.8447,872.8683 1521.5371,872.8683 1516.1357,872.8683 1512.9585,873.186 1511.052,872.5506 1510.4166,870.962 1511.052,869.6911 1512.6406,869.0556 1517.7244,868.1024 1521.5371,867.1492 1524.7144,865.5606 1526.6207,863.972 1527.2562,862.3834 1527.8916,860.477 1528.527,857.2997 1528.8447,853.487 1529.1624,849.0388 1529.4802,843.3198 1529.7979,837.283 1530.1157,829.9752 1530.4333,816.6307 1530.7512,805.828 1530.7512,797.8848 1531.0688,792.8012 1530.4333,760.3931 1530.7512,741.0117 1530.4333,734.0217 1530.1157,728.6204 1529.4802,724.4899 1528.527,721.6304 1527.2562,720.0417 1525.0321,718.4531 1522.1726,717.4999 1518.3597,716.8645 1516.1357,716.229 1515.5002,714.9581 1516.4535,713.3695 1517.7244,713.0518 1519.6306,712.734 1523.1257,712.734 1527.2562,712.734 1547.9084,712.0986" stroke="black" stroke-width="1" /><polyline fill="none" points="1687.7081,715.9113 1683.26,716.5468 1679.1295,718.1354 1674.6814,720.6772 1670.5509,724.4899 1666.7383,729.2559 1663.561,735.6104 1661.0192,743.2358 1659.4305,752.1321 1689.6145,753.0853 1695.9691,752.7676 1702.3237,751.8145 1706.7717,749.9081 1709.6313,746.4131 1710.5845,740.694 1710.2666,735.9281 1708.9958,731.4799 1706.7717,727.3495 1703.9124,723.2191 1700.0994,720.0417 1696.2869,717.8177 1692.1565,716.2291 1687.7081,715.9113" stroke="black" stroke-width="1" /><polyline fill="none" points="1687.0728,711.7809 1694.6982,712.4163 1702.3237,714.6404 1709.3137,718.4531 1715.9857,723.8545 1721.7048,730.209 1725.8353,737.199 1728.3772,744.5067 1729.0127,752.7676 1728.3772,756.2626 1727.4241,756.8981 1725.5176,757.2158 1722.9758,757.5335 1719.1631,757.5335 1659.4305,758.4867 1659.1128,763.8881 1659.1128,768.0185 1659.7483,776.2794 1661.3368,783.5871 1664.5142,790.5771 1668.9623,796.6139 1674.3635,801.6976 1680.0826,805.5103 1686.4374,807.7344 1693.7451,808.3698 1700.7351,807.7344 1707.4071,805.5103 1714.0795,802.0153 1720.1162,796.9316 1723.2936,794.3898 1724.8822,793.7544 1726.1531,794.3898 1726.7886,796.9316 1724.2467,800.7444 1720.752,804.5571 1716.3036,807.7344 1711.22,810.9116 1699.7817,815.0421 1686.755,816.6307 1677.2231,815.6776 1668.6445,813.1357 1660.7015,808.6876 1653.3937,802.333 1647.3569,794.7076 1643.2264,786.1289 1640.6847,776.5971 1639.7314,766.4299 1640.6847,754.9917 1643.5442,744.8245 1648.3101,735.6104 1654.6646,727.3495 1662.29,720.6772 1670.2333,715.5936 1678.4941,712.734 1687.0728,711.7809" stroke="black" stroke-width="1" /><polyline fill="none" points="1776.3541,712.0986 1777.6249,716.2291 1778.578,721.6304 1779.2136,727.9849 1779.8489,735.9281 1787.4744,725.4431 1796.053,718.4531 1805.5848,714.0049 1815.752,712.4163 1823.6953,713.3695 1831.3207,715.5936 1837.993,719.7241 1843.0764,726.0786 1844.6653,730.209 1846.2539,735.9281 1846.8894,742.9181 1847.207,751.179 1846.5717,791.2126 1846.5717,796.2962 1846.8894,800.4266 1847.5248,803.2862 1848.1603,805.1926 1851.0198,807.7344 1856.1035,809.6407 1859.2808,810.9116 1860.2338,812.1826 1859.916,813.7712 1858.3275,814.0889 1856.7389,814.0889 1849.7489,813.1357 1840.5348,812.818 1819.8826,813.7712 1816.3877,813.1357 1815.4343,811.8648 1815.752,810.5939 1817.6584,809.9584 1823.0597,808.3698 1826.2371,806.7812 1829.0967,802.6508 1829.4144,800.7444 1830.0498,797.2494 1830.3676,792.1658 1830.3676,785.4935 1831.0031,772.149 1831.0031,761.664 1830.6853,750.2258 1829.4144,740.694 1827.5081,733.3863 1824.6484,728.3027 1821.4712,724.4899 1817.6584,721.9481 1813.5281,720.3595 1809.0798,720.0417 1802.4076,720.9949 1796.3708,723.8545 1790.6519,728.3027 1785.8857,734.9749 1781.7554,743.8713 1778.8958,754.9917 1777.3071,768.9717 1776.6718,785.1758 1776.6718,792.4835 1776.9894,798.2026 1777.6249,802.6508 1778.578,805.5103 1780.1665,807.4166 1782.3909,809.0052 1785.2504,810.2762 1789.063,810.9116 1790.9695,811.5471 1791.6047,813.1357 1790.9695,814.4066 1789.063,814.7244 1783.0261,814.4066 1780.1665,814.0889 1775.7185,814.0889 1769.364,814.0889 1761.103,814.0889 1751.5712,814.4066 1747.4409,813.7712 1746.1699,812.5002 1747.7587,810.5939 1751.8889,809.323 1756.3374,807.7344 1759.1968,805.5103 1760.1498,803.2862 1760.7854,799.7912 1761.4208,794.3898 1761.7385,787.7176 1762.0564,779.7744 1762.374,770.5603 1762.374,760.7108 1762.374,749.9081 1762.374,740.3763 1761.7385,732.7509 1760.7854,727.3495 1759.5145,723.5367 1756.0195,719.4063 1751.5712,717.4999 1748.0764,715.9113 1746.8054,714.3227 1747.7587,712.7341 1750.6182,712.4163 1760.1498,712.4163 1761.7385,712.4163 1764.916,712.4163 1769.6816,712.0986 1776.3541,712.0986" stroke="black" stroke-width="1" /><polyline fill="none" points="1896.7725,792.8012 1901.2207,793.7544 1905.0334,796.2962 1907.8931,800.1089 1908.5283,804.5571 1907.8931,809.0053 1905.3511,812.818 1901.5383,815.3598 1896.7725,816.313 1892.3243,815.3598 1888.5115,812.818 1885.9697,809.0052 1885.0166,804.5571 1885.9697,800.1089 1888.5115,796.2962 1892.3243,793.7544 1896.7725,792.8012" stroke="black" stroke-width="1" /><polyline fill="none" points="1912.9764,654.5901 1922.1907,655.5432 1930.7693,658.0851 1938.7123,662.5332 1946.0201,668.5701 1952.0569,675.56 1956.5051,683.1855 1959.0469,691.4464 1960.0,700.3427 1959.0469,709.2391 1957.1405,717.1823 1953.3279,724.49 1948.2441,730.8445 1942.2075,735.9281 1935.8528,739.7408 1928.5452,741.9649 1920.9197,742.9181 1915.8359,742.2827 1910.4347,741.0117 1905.0334,739.1054 1899.9497,735.9281 1898.9966,748.0017 1898.3611,757.8513 1898.0435,765.7944 1897.7256,771.5135 1897.7256,773.7376 1897.408,775.0085 1896.4548,775.3262 1894.8661,775.644 1892.642,774.6908 1892.0066,772.149 1892.0066,766.7476 1892.0066,753.0854 1892.3243,741.6472 1892.642,732.1154 1892.9597,724.8077 1899.3145,729.5736 1905.0334,733.0686 1910.1169,735.2927 1914.5652,735.9281 1919.6488,735.2927 1924.4146,733.0686 1929.1805,729.2559 1933.6289,724.1722 1937.4415,717.8177 1939.9833,710.8277 1941.5718,703.2023 1942.2075,694.9413 1941.5718,687.3159 1939.9833,680.3259 1937.1238,673.9714 1933.6289,668.8878 1929.1805,664.4396 1924.4146,661.2623 1919.3312,659.356 1913.9297,658.7205 1909.1638,659.356 1905.6687,660.6268 1903.7625,663.1687 1903.127,666.3459 1903.4447,669.5232 1903.4447,672.7004 1902.8092,677.1487 1900.5852,680.3259 1897.408,682.8677 1893.5952,683.5032 1888.8293,682.8677 1885.652,680.6437 1883.7457,677.4664 1883.1102,672.7004 1883.7457,668.57 1885.3342,665.075 1888.1938,661.8978 1892.0066,659.356 1901.8561,655.861 1912.9764,654.5901" stroke="black" stroke-width="1" /></svg>